HIERARCHY
ROOT root
{
	OFFSET	0	13.1	24.9
	CHANNELS 6  Xposition Yposition Zposition Xrotation Yrotation Zrotation
	JOINT spine_1
	{
		OFFSET	0	9.99999	0
		CHANNELS 3  Xrotation Yrotation Zrotation
		JOINT spine_2
		{
			OFFSET	0	112	-10
			CHANNELS 3  Xrotation Yrotation Zrotation
			JOINT spine_3
			{
				OFFSET	0	206.5	19.3
				CHANNELS 3  Xrotation Yrotation Zrotation
				JOINT spine_4
				{
					OFFSET	0	110.4	14.6
					CHANNELS 3  Xrotation Yrotation Zrotation
					JOINT neck_1
					{
						OFFSET	0	71.8	-50.3
						CHANNELS 3  Xrotation Yrotation Zrotation
						JOINT neck_2
						{
							OFFSET	0	86.2	-25.8
							CHANNELS 3  Xrotation Yrotation Zrotation
							JOINT head_ee
							{
								OFFSET	0	179.8	-8.7
								CHANNELS 3  Xrotation Yrotation Zrotation
								End Site
								{
									OFFSET	1	0	0
								}
							}
						}
					}
					JOINT left_clavicle
					{
						OFFSET	-43.2	22.4	-70.8
						CHANNELS 3  Xrotation Yrotation Zrotation
						JOINT left_shoulder
						{
							OFFSET	-93.9	-5.79999	48.7
							CHANNELS 3  Xrotation Yrotation Zrotation
							JOINT left_elbow
							{
								OFFSET	-291.4	-30.8	15.2
								CHANNELS 3  Xrotation Yrotation Zrotation
								JOINT left_lowarm_twist
								{
									OFFSET	-110.7	-3.89999	13.6
									CHANNELS 3  Xrotation Yrotation Zrotation
									JOINT left_hand
									{
										OFFSET	-110.7	-3.89999	13.6
										CHANNELS 3  Xrotation Yrotation Zrotation
										JOINT left_ee
										{
											OFFSET	-80.8	-5.10001	12.1
											CHANNELS 3  Xrotation Yrotation Zrotation
											End Site
											{
												OFFSET	1	0	0
											}
										}
									}
								}
							}
						}
					}
					JOINT right_clavicle
					{
						OFFSET	43.2	22.4	-70.8
						CHANNELS 3  Xrotation Yrotation Zrotation
						JOINT right_shoulder
						{
							OFFSET	93.9	-5.79999	48.7
							CHANNELS 3  Xrotation Yrotation Zrotation
							JOINT right_elbow
							{
								OFFSET	291.4	-30.8	15.2
								CHANNELS 3  Xrotation Yrotation Zrotation
								JOINT right_lowarm_twist
								{
									OFFSET	110.7	-3.89999	13.6
									CHANNELS 3  Xrotation Yrotation Zrotation
									JOINT right_hand
									{
										OFFSET	110.7	-3.89999	13.6
										CHANNELS 3  Xrotation Yrotation Zrotation
										JOINT right_ee
										{
											OFFSET	80.8	-5.10001	12.1
											CHANNELS 3  Xrotation Yrotation Zrotation
											End Site
											{
												OFFSET	1	0	0
											}
										}
									}
								}
							}
						}
					}
				}
			}
		}
	}
	JOINT left_hip
	{
		OFFSET	-82.8	-127.5	0.300001
		CHANNELS 3  Xrotation Yrotation Zrotation
		JOINT left_knee
		{
			OFFSET	-28.2	-396.7	2.2
			CHANNELS 3  Xrotation Yrotation Zrotation
			JOINT left_ankle
			{
				OFFSET	-11.7	-411.3	35.4
				CHANNELS 3  Xrotation Yrotation Zrotation
				JOINT left_toes
				{
					OFFSET	0	-60	-88.6
					CHANNELS 3  Xrotation Yrotation Zrotation
					JOINT left_foot_ee
					{
						OFFSET	-22.5	-16.5	-42.2
						CHANNELS 3  Xrotation Yrotation Zrotation
						End Site
						{
							OFFSET	1	0	0
						}
					}
				}
			}
		}
	}
	JOINT right_hip
	{
		OFFSET	82.8	-127.5	0.300001
		CHANNELS 3  Xrotation Yrotation Zrotation
		JOINT right_knee
		{
			OFFSET	28.2	-396.7	2.2
			CHANNELS 3  Xrotation Yrotation Zrotation
			JOINT right_ankle
			{
				OFFSET	11.7	-411.3	35.4
				CHANNELS 3  Xrotation Yrotation Zrotation
				JOINT right_toes
				{
					OFFSET	0	-60	-88.6
					CHANNELS 3  Xrotation Yrotation Zrotation
					JOINT right_foot_ee
					{
						OFFSET	22.5	-16.5	-42.2
						CHANNELS 3  Xrotation Yrotation Zrotation
						End Site
						{
							OFFSET	1	0	0
						}
					}
				}
			}
		}
	}
}
MOTION
Frames: 16
Frame Time: 0.02
3151.34 702.743 -851.614 -31.8646 54.5604 19.557 4.66428 0.61481 2.972 4.6691 0.424536 3.00505 4.68764 0.0318065 3.0347 4.67516 0.510464 2.99167 8.07409 11.3137 0.287058 8.58566 18.654 0.495931 -0.0 0.0 -0.0 2.87704 12.8464 6.28509 -10.2784 -47.5739 50.4583 1.99806 -44.7007 0.821587 -34.6209 -2.3981 3.64818 -1.29616 0.493187 -8.46745 -0.0 0.0 -0.0 12.2859 21.5367 -24.4737 -26.1228 -14.3934 -74.7114 0.359127 10.0876 -0.0316965 -55.8081 4.76651 -4.95167 4.71237 18.8114 -23.9166 0.0 0.0 0.0 13.5902 -7.76301 16.894 -17.5211 0.316911 2.65963 39.3967 25.8059 -5.13608 7.07569 -0.0 -0.0 -0.0 0.0 -0.0 49.2269 9.56597 3.65464 -11.8038 -0.303261 -1.78291 -9.93288 13.661 -1.60104 -5.49096 0.0 0.0 0.0 0.0 0.0 
3128.36 703.749 -858.867 -31.9549 53.7551 19.3698 4.86362 0.674798 2.91111 4.86821 0.488272 2.9481 4.88951 0.113002 2.98609 4.87754 0.582977 2.93086 8.75123 11.0652 -0.3457 9.30376 18.6918 -0.334133 -0.0 0.0 -0.0 2.29936 13.7667 5.37941 -11.2987 -47.4333 51.4792 2.11319 -46.3045 0.903714 -34.9473 -2.43054 3.67467 -1.30505 0.490763 -8.52847 -0.0 0.0 -0.0 12.0971 21.2852 -24.0598 -25.7506 -14.6648 -73.6244 0.364372 10.2319 -0.0326216 -55.8051 4.76615 -4.95155 4.73292 18.8651 -24.0337 0.0 0.0 0.0 13.8813 -7.63565 17.2533 -18.5195 0.310319 2.81268 38.8573 25.9946 -5.08922 7.04165 -0.0 -0.0 -0.0 0.0 -0.0 49.0157 8.73678 3.59496 -12.0076 -0.30525 -1.81411 -10.6052 13.9375 -1.71447 -5.63721 0.0 0.0 0.0 0.0 0.0 
3107.89 704.406 -865.348 -31.7179 52.9623 18.8869 5.06749 0.721195 2.74268 5.07151 0.545279 2.78297 5.09439 0.200551 2.82875 5.0838 0.644612 2.76167 9.40669 10.7311 -1.09865 10.0069 18.7105 -1.31737 -0.0 0.0 -0.0 2.31344 15.0996 5.47837 -12.5412 -47.0146 52.0461 2.14842 -46.7772 0.929286 -35.2059 -2.45634 3.69552 -1.32661 0.667827 -8.59419 -0.0 0.0 -0.0 11.9522 20.7051 -23.7725 -25.4623 -14.6756 -73.0121 0.367116 10.3073 -0.0331109 -55.982 4.78771 -4.95863 4.70617 18.6214 -23.9802 0.0 0.0 0.0 13.8816 -7.61782 17.6911 -19.4845 0.301415 2.96048 38.4297 26.0514 -5.04846 7.02664 -0.0 -0.0 -0.0 0.0 -0.0 48.8033 7.8991 3.43824 -12.2258 -0.307258 -1.84753 -11.2303 14.0884 -1.81904 -5.82824 0.0 0.0 0.0 0.0 0.0 
3088.77 708.453 -871.177 -32.7197 52.0368 19.6797 5.16761 0.668911 2.63193 5.17132 0.50014 2.66912 5.19118 0.174212 2.70996 5.18143 0.599862 2.64851 9.51885 10.6081 -1.96969 10.1963 19.2792 -2.40167 -0.0 0.0 -0.0 1.83989 15.7938 4.76595 -12.5926 -46.791 53.478 2.08512 -45.9218 0.883479 -34.9586 -2.43166 3.67558 -1.69183 3.78033 -9.62401 -0.0 0.0 -0.0 12.0006 19.6029 -23.963 -24.4961 -14.6 -72.6793 0.382994 10.7429 -0.0360113 -56.2236 4.81719 -4.96818 4.42386 17.8486 -22.3888 0.0 0.0 0.0 13.6255 -7.52282 17.8978 -18.3095 0.311927 2.7805 37.5035 26.5904 -4.97257 7.02641 -0.0 -0.0 -0.0 0.0 -0.0 48.5939 7.69334 3.64475 -12.6136 -0.310511 -1.90694 -9.60448 17.2328 -1.59123 -4.89553 0.0 0.0 0.0 0.0 0.0 
3068.83 708.97 -877.871 -32.8657 50.9117 19.3697 5.41861 0.530981 2.67285 5.42252 0.359888 2.7012 5.43562 0.0425882 2.72471 5.42557 0.472215 2.68385 8.95542 10.0843 -2.08948 9.57303 18.6024 -2.47337 -0.0 0.0 -0.0 1.09514 15.7463 3.58308 -12.4651 -45.5023 56.5558 2.05284 -45.4753 0.860384 -35.4066 -2.47643 3.71162 -1.68196 3.49461 -9.69079 -0.0 0.0 -0.0 12.1174 19.5872 -24.2323 -24.7661 -14.7635 -72.896 0.392575 11.0052 -0.0378187 -56.5461 4.8566 -4.98073 4.35069 16.6414 -22.5208 0.0 0.0 0.0 14.1973 -7.35765 18.6661 -18.396 0.311279 2.79376 37.7035 26.4549 -4.98849 7.28877 -0.0 -0.0 -0.0 0.0 -0.0 48.1949 7.3754 4.0199 -12.9031 -0.312678 -1.9513 -7.38594 19.5313 -1.24441 -3.71178 0.0 0.0 0.0 0.0 0.0 
3051.04 710.583 -882.907 -32.5307 50.9 18.8449 5.35938 0.481798 2.65552 5.36325 0.311906 2.68077 5.37409 -0.00563952 2.69884 5.36417 0.420509 2.66591 8.87837 9.90857 -2.01936 9.46861 18.2582 -2.3762 -0.0 0.0 -0.0 1.49235 16.7745 4.28938 -11.3104 -41.8212 58.3095 2.0066 -44.8228 0.827597 -35.8563 -2.52164 3.74745 -1.52754 2.48481 -9.12067 -0.0 0.0 -0.0 11.924 19.1429 -23.8178 -24.7886 -14.6872 -71.7085 0.441282 12.331 -0.0476699 -56.0414 4.79496 -4.96099 4.5207 17.8194 -23.0978 0.0 0.0 0.0 14.1564 -6.81725 18.6132 -19.2032 0.304268 2.9174 37.3373 25.9478 -4.93442 7.1339 -0.0 -0.0 -0.0 0.0 -0.0 47.5324 7.16102 4.73419 -13.5348 -0.316628 -2.04815 -7.3525 19.6932 -1.24059 -3.99953 0.0 0.0 0.0 0.0 0.0 
3031.58 710.626 -889.245 -32.4194 50.3638 19.0742 5.38869 0.323868 2.53705 5.39226 0.161826 2.55251 5.39602 -0.138754 2.55386 5.38702 0.266189 2.54375 10.8556 9.44127 -2.90008 11.5344 18.0224 -3.68633 -0.0 0.0 -0.0 0.635915 15.9238 2.8738 -10.9284 -40.9904 62.1429 1.87877 -42.9397 0.738982 -35.8241 -2.5184 3.7449 -2.12682 4.41223 -12.2472 -0.0 0.0 -0.0 11.9125 18.4491 -23.8347 -22.5582 -15.1277 -71.0099 0.475952 13.2667 -0.0553507 -55.5951 4.74058 -4.94307 3.94708 14.6067 -20.6968 0.0 0.0 0.0 13.8982 -6.59721 18.2938 -19.6882 0.299218 2.99166 35.5583 25.2227 -4.72741 7.92298 -0.0 -0.0 -0.0 0.0 -0.0 46.7959 6.71775 4.79936 -14.4802 -0.320543 -2.19315 -4.51057 22.6099 -0.779084 -2.54585 0.0 0.0 0.0 0.0 0.0 
3006.07 718.679 -906.785 -30.8835 50.8612 17.5148 5.06194 0.268776 2.64487 5.06582 0.0999914 2.6566 5.06707 -0.227672 2.64872 5.05733 0.19335 2.65145 11.6648 9.85857 -2.95293 12.4188 18.6368 -3.86166 -0.0 0.0 -0.0 0.976269 18.1225 3.60392 -14.0096 -39.1587 60.2709 1.83359 -42.2449 0.708401 -36.2914 -2.56567 3.78179 -1.81875 2.50224 -11.0745 -0.0 0.0 -0.0 11.57 15.0957 -23.2146 -21.0203 -15.1819 -71.6277 0.724794 19.7503 -0.126174 -56.939 4.90471 -4.99573 3.12361 9.21878 -17.4306 0.0 0.0 0.0 15.5498 -5.67227 18.172 -22.8064 0.251761 3.46771 38.1237 25.7218 -5.0069 7.56665 -0.0 -0.0 -0.0 0.0 -0.0 44.6806 6.52036 5.11174 -17.2461 -0.318257 -2.61746 -0.791854 20.4412 -0.132596 -1.90497 0.0 0.0 0.0 0.0 0.0 
2981.65 719.066 -922.439 -29.8996 50.9008 16.8565 4.95494 0.223022 2.6545 4.95886 0.0537188 2.6633 4.95806 -0.279511 2.64915 4.9483 0.142227 2.66004 12.0047 9.37321 -3.10934 12.7268 17.9513 -4.08094 -0.0 0.0 -0.0 0.491724 19.2122 2.97587 -14.7594 -37.9924 61.5535 1.75799 -41.0475 0.658162 -36.4778 -2.5846 3.79639 -1.80548 2.46235 -11.0034 -0.0 0.0 -0.0 11.1063 13.345 -22.2225 -19.38 -15.0666 -71.9175 0.987628 26.0693 -0.228647 -57.7021 4.99844 -5.02391 2.9106 7.51228 -16.6914 0.0 0.0 0.0 15.7822 -5.43439 18.1766 -25.683 0.185065 3.90407 39.0048 25.8045 -5.09747 7.64893 -0.0 -0.0 -0.0 0.0 -0.0 42.8085 6.48581 5.04416 -19.0609 -0.305631 -2.89561 2.43226 22.3301 0.411164 -1.05166 0.0 0.0 0.0 0.0 0.0 
2961.02 717.689 -937.247 -27.7568 50.3733 14.8154 4.84981 0.245464 2.81 4.8542 0.0662318 2.81991 4.85389 -0.291784 2.80557 4.84294 0.154784 2.81644 11.6858 9.8882 -2.57956 12.3988 18.3383 -3.38959 -0.0 0.0 -0.0 -0.590071 20.2827 1.50247 -14.6748 -36.408 63.311 1.7304 -40.5993 0.640124 -35.4774 -2.48353 3.71729 -1.88666 2.50547 -11.5324 -0.0 0.0 -0.0 10.9692 11.2265 -21.9577 -18.7837 -13.8502 -72.1193 1.22204 31.188 -0.341075 -57.9327 5.02683 -5.03218 2.47178 5.25046 -14.5955 0.0 0.0 0.0 15.9662 -5.24004 18.1727 -28.0964 0.112257 4.26727 38.89 26.1058 -5.09621 7.58562 -0.0 -0.0 -0.0 0.0 -0.0 40.8953 7.737 4.72561 -20.7449 -0.28604 -3.15325 5.96826 21.3076 0.986766 0.0255886 -0.0 -0.0 0.0 0.0 0.0 
2938.59 719.388 -945.928 -26.374 49.739 13.6897 4.66484 0.286877 2.92481 4.6696 0.100264 2.93713 4.6711 -0.282206 2.92527 4.65921 0.183123 2.93313 11.5171 10.0863 -2.42033 12.2312 18.5369 -3.17618 -0.0 0.0 -0.0 -1.07348 21.1038 0.913119 -14.7454 -35.3352 65.2605 1.69901 -40.0819 0.619803 -34.8172 -2.41759 3.66413 -1.9358 2.54213 -11.848 -0.0 0.0 -0.0 10.9954 9.99267 -22.027 -17.7414 -12.74 -72.529 1.41366 35.001 -0.445759 -58.1049 5.04806 -5.03828 2.16699 3.63099 -13.1599 0.0 0.0 0.0 16.3365 -5.09397 18.0899 -29.2705 0.0713167 4.4428 38.9694 26.3431 -5.1122 7.56006 -0.0 -0.0 -0.0 0.0 -0.0 39.4259 8.51228 4.37942 -21.9643 -0.26713 -3.33941 8.30126 20.5195 1.3503 0.720643 -0.0 -0.0 0.0 0.0 0.0 
2908.52 719.407 -956.718 -24.9474 50.0502 12.7802 4.81612 0.397274 2.70646 4.82016 0.224316 2.72624 4.82756 -0.124164 2.73263 4.81727 0.308799 2.71797 11.2889 9.33566 -3.98179 12.0974 18.7849 -5.10412 -0.0 0.0 -0.0 -1.34457 20.2511 0.396129 -16.9738 -34.1275 67.6818 1.58143 -38.0721 0.545673 -33.5924 -2.29691 3.56353 -2.01786 2.98389 -12.1949 -0.0 0.0 -0.0 11.1636 11.6185 -22.3866 -16.3895 -11.4761 -72.4957 1.5964 38.3344 -0.554931 -56.7175 4.87758 -4.98732 1.89083 1.18362 -12.2611 0.0 0.0 0.0 16.6716 -5.01771 17.8179 -34.1058 -0.134968 5.1559 40.259 25.7524 -5.21798 7.87937 -0.0 -0.0 -0.0 0.0 -0.0 37.2296 9.20255 4.86856 -24.0079 -0.22657 -3.65036 11.7372 18.3873 1.84687 1.53925 -0.0 -0.0 0.0 0.0 0.0 
2876.83 717.323 -967.767 -23.148 49.2091 11.594 4.93379 0.476847 2.42254 4.93699 0.321776 2.44795 4.94802 0.0131982 2.46896 4.93974 0.402842 2.43593 11.2824 8.94189 -4.84691 12.1549 18.9397 -6.18842 -0.0 0.0 -0.0 -1.63746 20.862 0.0642053 -18.3228 -33.4523 70.0348 1.47665 -36.1827 0.482419 -32.7574 -2.21588 3.49348 -2.0535 3.08047 -12.3904 -0.0 0.0 -0.0 11.2396 12.8137 -22.535 -15.3169 -11.2244 -72.411 1.71179 40.2936 -0.628054 -55.7503 4.75947 -4.94935 1.67823 -0.623282 -11.5334 0.0 0.0 0.0 18.2221 -4.67908 17.6193 -37.2262 -0.299793 5.60603 41.7916 25.3668 -5.34927 8.28285 -0.0 -0.0 -0.0 0.0 -0.0 35.0776 9.48335 4.96442 -26.0164 -0.175919 -3.95442 14.4414 16.9536 2.21898 2.16864 -0.0 -0.0 0.0 0.0 0.0 
2861.25 715.527 -981.114 -21.5595 48.8742 10.4968 4.88417 0.536813 2.4924 4.88755 0.377179 2.52148 4.90132 0.0569477 2.54888 4.89255 0.458653 2.50795 9.99199 9.23796 -4.3711 10.7985 19.1363 -5.41311 -0.0 0.0 -0.0 -1.71598 20.6576 -0.0820245 -17.4681 -32.4898 70.9499 1.2055 -30.8432 0.332551 -31.4018 -2.08656 3.37729 -2.10539 3.28287 -12.6455 -0.0 0.0 -0.0 11.6709 15.8724 -23.4136 -15.3581 -10.8947 -72.7791 1.7131 40.3151 -0.628896 -53.0563 4.43401 -4.83312 1.64134 -0.376114 -11.1835 0.0 0.0 0.0 21.5458 0.3556 12.9922 -44.7651 -0.797408 6.65208 42.2826 23.1468 -5.32132 8.48636 -0.0 -0.0 -0.0 0.0 -0.0 33.5833 9.55955 4.70457 -27.526 -0.130848 -4.1817 16.9249 17.1823 2.57481 1.96207 -0.0 -0.0 0.0 0.0 0.0 
2853.71 716.337 -990.155 -20.317 48.3138 9.46599 4.59305 0.593978 2.65667 4.59687 0.423787 2.68905 4.61388 0.0684888 2.72135 4.60389 0.497261 2.67645 8.57997 9.47581 -3.96034 9.31935 19.3214 -4.70658 -0.0 0.0 -0.0 -1.87036 20.3271 -0.360513 -16.9683 -32.3197 71.5648 1.04016 -27.2599 0.252224 -30.4927 -2.00138 3.29767 -2.12824 3.349 -12.7687 -0.0 0.0 -0.0 12.3865 18.9328 -24.8948 -15.4358 -9.85612 -73.2153 1.74786 40.8837 -0.651521 -51.1333 4.20518 -4.74086 1.62906 0.035281 -10.935 0.0 0.0 0.0 24.5749 3.35803 9.93239 -49.0418 -1.13974 7.21411 42.0322 21.7263 -5.25734 8.6241 -0.0 -0.0 -0.0 0.0 -0.0 32.2226 9.58593 4.31403 -27.7663 -0.123118 -4.21778 19.0149 17.8281 2.87723 1.88253 -0.0 -0.0 0.0 0.0 0.0 
2842.83 720.815 -997.775 -20.6277 48.3175 10.0105 4.38022 0.663976 2.71934 4.3842 0.48966 2.75604 4.405 0.114909 2.79681 4.39452 0.555004 2.74364 6.3634 9.80196 -4.65228 7.13421 20.7241 -5.19703 -0.0 0.0 -0.0 -1.60107 20.2347 0.0184779 -16.0494 -32.4502 71.7729 0.890666 -23.8073 0.187756 -29.7949 -1.93688 3.23567 -2.14788 3.7266 -12.7202 -0.0 0.0 -0.0 12.6301 23.9811 -25.0435 -12.8046 -6.09328 -73.8801 1.9059 43.3493 -0.757532 -49.3635 3.99738 -4.6492 1.70329 1.68892 -10.7723 0.0 0.0 0.0 26.7706 5.31515 7.98173 -50.2434 -1.24344 7.36737 41.9237 21.5859 -5.24375 8.92473 -0.0 -0.0 -0.0 0.0 -0.0 30.6045 7.35487 3.93896 -25.5775 -0.187898 -3.88813 21.201 16.5461 3.13913 1.84732 -0.0 -0.0 0.0 0.0 0.0 
